<svg width="124" height="40" viewBox="0 0 124 40" fill="none" xmlns="http://www.w3.org/2000/svg">
<g clip-path="url(#clip0_674_485)">
<path d="M43.1583 13.5318C42.744 13.5164 42.3308 13.4798 41.9203 13.4221C41.491 13.3414 41.0693 13.2238 40.6601 13.0707C40.0063 12.8231 39.4577 13.0114 38.9477 13.4147C38.9107 13.439 38.8789 13.4707 38.8545 13.5077C38.83 13.5448 38.8133 13.5864 38.8054 13.63C38.7975 13.6737 38.7985 13.7185 38.8085 13.7618C38.8184 13.8051 38.837 13.8458 38.8632 13.8817C39.0871 14.3113 39.411 14.6809 39.8076 14.9593C40.2041 15.2377 40.6618 15.4168 41.142 15.4814C41.3684 15.5112 41.5987 15.4842 41.8121 15.4028C42.8306 15.0099 43.8462 14.6052 44.8485 14.1752C45.2438 13.9901 45.6258 13.7776 45.9915 13.5392C46.1236 13.4638 46.2368 13.3593 46.3226 13.2337C46.4084 13.1081 46.4645 12.9647 46.4867 12.8142C46.589 12.1278 46.5164 11.5036 45.9426 10.998C45.2218 10.3683 44.4176 9.84092 43.5527 9.43092C43.4576 9.38946 43.3581 9.35911 43.2562 9.34048C41.9518 9.02782 40.5835 9.11618 39.3302 9.59401C38.2746 10.0062 37.2131 10.4287 36.3235 11.1611C34.9759 12.2775 34.0744 13.6563 33.8876 15.4354C33.8616 15.7371 33.8963 16.041 33.9898 16.329C34.0832 16.617 34.2335 16.8833 34.4318 17.1122C34.8906 17.6664 35.4481 18.1309 36.0759 18.4822C36.9527 18.9848 37.9034 19.3455 38.8929 19.5511C39.4859 19.686 40.0508 19.5719 40.6231 19.4696C41.7068 19.2754 42.798 19.1049 43.8714 18.8632C44.4669 18.7221 45.0462 18.5199 45.6001 18.2598C46.552 17.815 47.486 17.3391 48.4171 16.8454C49.1516 16.4481 49.7938 15.8999 50.3014 15.2368C51.1882 14.0666 51.8792 12.7602 52.3474 11.3687C52.3936 11.2594 52.4082 11.1394 52.3896 11.0223C52.371 10.9051 52.3199 10.7955 52.2422 10.706C50.6528 8.63032 48.6469 7.20703 46.0583 6.67033C45.2651 6.50576 44.4689 6.35157 43.6742 6.18997C43.0471 6.06099 42.4318 6.17959 41.818 6.29227C40.5051 6.51 39.2083 6.81611 37.9366 7.20851C36.9107 7.5421 35.9633 8.0358 35.0233 8.55174C34.5785 8.79637 34.1338 9.05879 33.7171 9.34048C32.9029 9.88145 32.1769 10.5445 31.5644 11.3064C30.6897 12.3887 30.0966 13.6252 29.6207 14.915C29.256 15.9099 28.9891 16.9388 28.66 17.9469C28.4978 18.4544 28.4799 18.997 28.6081 19.514C28.875 20.6927 29.17 21.861 29.6993 22.9551C30.2129 23.9778 30.8374 24.9408 31.5615 25.8269C32.1411 26.5579 32.7119 27.3095 33.3539 27.9767C33.8572 28.4732 34.4002 28.9279 34.9773 29.3362C35.7281 29.9247 36.5122 30.4692 37.3258 30.9671C38.0389 31.3807 38.8365 31.6535 39.6001 31.9812C39.6987 32.0151 39.8027 32.0312 39.907 32.0286C41.2669 32.0848 42.6279 31.946 43.9485 31.6165C46.3207 30.9908 48.6528 30.254 50.9879 29.5141C51.6002 29.3199 52.1858 29.0442 52.7848 28.8099C52.9553 28.7432 53.1302 28.6883 53.317 28.6216C53.4653 28.9315 53.5943 29.2013 53.7218 29.4726C54.5847 31.3066 55.4312 33.145 56.0495 35.0813C56.1977 35.5646 56.426 36.0257 56.6203 36.4957C56.8278 36.9998 56.7789 37.2918 56.3519 37.618C56.05 37.8539 55.721 38.053 55.3719 38.211C54.0094 38.8041 52.6469 39.3971 51.2622 39.9412C50.4601 40.2526 49.6224 40.4735 48.7922 40.7063C47.8225 40.9776 46.8485 41.2355 45.867 41.4653C44.4348 41.8019 42.9863 41.9946 41.5082 41.8686C40.2035 41.7559 38.8958 41.667 37.5912 41.5558C36.8529 41.4916 36.1348 41.2814 35.4785 40.9375C34.2138 40.2822 32.918 39.6773 31.7468 38.8619C30.7846 38.1903 29.8624 37.4579 28.9387 36.7329C28.664 36.4943 28.4069 36.2361 28.1693 35.9605C28.0242 35.7834 27.8703 35.6136 27.7082 35.4519C27.0558 34.9004 26.6704 34.168 26.3234 33.4134C26.0951 32.9256 25.8253 32.4541 25.6222 31.956C25.342 31.2651 25.0291 30.5712 24.872 29.8477C24.6076 28.6745 24.4155 27.4862 24.2967 26.2895C24.1692 24.9137 24.1485 23.5274 24.1188 22.1457C24.0758 20.4006 24.0566 18.6541 24.0432 16.9076C24.0497 15.6968 24.253 14.495 24.6451 13.3494C24.8809 12.617 25.1314 11.8891 25.4191 11.1774C25.7882 10.2641 26.1604 9.3479 26.6051 8.47168C27.2456 7.22186 28.0151 6.05061 29.1255 5.14178C30.1789 4.27975 31.3552 3.58013 32.6156 3.06614C33.3346 2.76963 34.0537 2.45976 34.7935 2.22107C36.1026 1.79853 37.4622 1.59541 38.8187 1.38488C40.3147 1.15212 41.8017 1.25145 43.2977 1.38488C44.7908 1.52496 46.2754 1.7437 47.7455 2.04019C49.9693 2.48497 51.9842 3.37452 53.6758 4.91939C54.1147 5.33748 54.5506 5.78226 54.9716 6.22704C55.6358 6.93127 55.9131 7.81786 56.0228 8.74745C56.0856 9.37747 56.1024 10.0112 56.0732 10.6437C56.042 11.6934 55.9813 12.743 55.9145 13.7912C55.8375 15.0144 55.4935 16.1827 55.1599 17.3495C54.843 18.492 54.3926 19.5932 53.8182 20.6304C53.5378 21.093 53.2304 21.5385 52.8975 21.9648C52.7492 22.1709 52.5179 22.2909 52.3711 22.5222C52.2051 22.736 51.9966 22.9132 51.7588 23.0426C50.8574 23.6357 49.9664 24.2539 49.0309 24.7891C48.1201 25.299 47.1135 25.6146 46.0746 25.7157C45.5705 25.7706 45.0738 25.8907 44.5742 25.9796C43.3308 26.1905 42.0635 26.221 40.8114 26.0701C40.3162 26.0152 39.8165 25.9945 39.3199 25.9411C38.2969 25.8329 37.3376 25.4785 36.3769 25.1435C34.6171 24.5297 33.4236 23.268 32.4629 21.7335C31.9593 20.9384 31.6829 20.0206 31.6637 19.0796C31.64 18.0507 31.6015 17.0218 31.6074 15.9929C31.5963 15.5151 31.6517 15.0381 31.772 14.5755C32.0407 13.6172 32.3685 12.6764 32.7535 11.7586C33.1538 10.8468 33.8965 10.1796 34.6957 9.60439C36.0567 8.62291 37.6178 8.12179 39.2457 7.82527C40.9715 7.50503 42.6379 7.77486 44.2717 8.35901C44.9092 8.58584 45.5705 8.76969 46.0701 9.24856C46.4882 9.65183 46.9434 10.0506 47.2414 10.5369C47.7351 11.3464 47.9071 12.2241 47.3896 13.1344C46.9437 13.8885 46.3615 14.5531 45.6728 15.0944C44.6539 15.9539 43.5282 16.678 42.3236 17.2486C41.3982 17.656 40.4019 17.8781 39.391 17.9025C38.5141 17.9281 37.6443 17.7371 36.8588 17.3465C36.7367 17.3008 36.6288 17.2236 36.546 17.1229C36.4632 17.0222 36.4085 16.9014 36.3873 16.7727C36.3589 16.6195 36.3415 16.4644 36.3354 16.3087C36.3117 15.4043 36.3206 14.4984 36.2642 13.5955C36.2138 12.7905 36.543 12.2612 37.2665 11.9454C37.4933 11.8461 37.7113 11.7097 37.9218 11.5881C38.8499 11.0677 39.821 10.743 40.9033 10.918C41.4578 11.0084 42.0137 11.087 42.5638 11.1967C43.0634 11.2975 43.2369 11.5199 43.228 12.0225C43.2191 12.4954 43.185 12.9699 43.1583 13.5318Z" fill="#F9550D"/>
<path d="M81.5309 25.3732C81.4909 25.4141 81.4538 25.4577 81.4197 25.5036C80.6028 26.7683 79.7962 28.0404 78.9704 29.2976C78.6057 29.8521 78.2113 30.3873 77.8095 30.9151C77.7191 31.0337 77.5382 31.0826 77.3648 31.1835L77.4181 31.3169C77.3821 31.3755 77.3419 31.4315 77.298 31.4844C76.4974 32.3162 75.6672 33.1064 74.6961 33.7498C73.8198 34.3068 72.9058 34.8022 71.9607 35.2324C71.2965 35.5512 70.576 35.6505 69.8421 35.6965C68.9303 35.7543 68.02 35.8447 67.1082 35.9278C66.7865 35.9559 66.4647 35.9663 66.1445 36.0078C65.4254 36.1012 64.8665 35.8106 64.3328 35.3584C63.7695 34.9005 63.2615 34.3786 62.819 33.8032C62.5129 33.3723 62.2516 32.9113 62.0392 32.4274C61.6626 31.603 61.5751 30.7075 61.4891 29.815C61.372 28.5785 61.4224 27.3435 61.4773 26.1085C61.5381 24.7594 61.5692 23.4072 61.6255 22.0566C61.637 21.2756 61.7624 20.5004 61.9977 19.7556C62.5711 18.1113 63.5246 16.6255 64.7805 15.419C65.8346 14.3812 67.1186 13.7719 68.5003 13.3434C69.8821 12.9149 71.3173 12.7088 72.748 12.5013C73.5471 12.3856 74.3566 12.3056 75.1631 12.2655C76.1311 12.2105 77.1016 12.3136 78.0364 12.571C78.1141 12.5879 78.1928 12.5998 78.2721 12.6065C78.2768 12.5422 78.2708 12.4776 78.2543 12.4153C77.6049 11.1892 76.8918 10.0016 75.8822 9.03349C75.4908 8.67546 75.056 8.36812 74.5879 8.11873C73.8614 7.71398 73.0949 7.38633 72.364 6.99493C71.6953 6.6391 70.9511 6.52791 70.2379 6.33221C68.3814 5.90156 66.4687 5.76597 64.57 5.93042C64.1148 5.96749 63.6552 5.97787 63.1986 5.97638C62.054 5.97638 60.9109 5.95563 59.7679 5.93635C59.5811 5.92864 59.3955 5.90383 59.2134 5.86222C59.1185 5.85074 59.0315 5.80391 58.9697 5.73108C58.9078 5.65826 58.8757 5.56479 58.8798 5.46934C58.8798 5.00084 58.8798 4.53382 58.8709 4.06532C58.8698 3.99237 58.8936 3.92123 58.9384 3.86357C58.9831 3.80592 59.0461 3.76519 59.117 3.74805C59.9241 3.43514 60.7821 3.27381 61.6478 3.27213C62.6663 3.26324 63.6863 3.26175 64.7049 3.25879C66.103 3.25879 67.4833 3.45597 68.868 3.60572C70.447 3.77621 71.9815 4.14538 73.5085 4.55606C74.0445 4.71976 74.5645 4.93165 75.0623 5.18913C75.6346 5.46192 76.1945 5.75844 76.7421 6.07868C77.3127 6.38512 77.7924 6.83669 78.1327 7.38781C78.1684 7.46927 78.1972 7.55358 78.2187 7.63985C78.342 7.74042 78.4543 7.85373 78.5538 7.97789C79.2328 8.99939 79.9252 10.012 80.5612 11.0602C80.92 11.6532 81.1736 12.3085 81.4819 12.9327C81.8392 13.6592 82.2232 14.3782 82.5627 15.1092C82.9023 15.8401 83.2581 16.5651 83.4315 17.3657C83.5219 17.6618 83.6494 17.9453 83.8111 18.2093C84.3152 19.1996 84.8207 20.1885 85.3367 21.1745C85.6154 21.7082 86.0587 22.11 86.4827 22.5207C86.7362 22.7668 87.0194 22.9803 87.2937 23.2041C87.3871 23.2812 87.4953 23.342 87.6377 23.4384C87.7859 23.2545 87.9342 23.0959 88.0439 22.9195C88.6102 22.0699 88.9453 21.1152 89.184 20.1366C89.301 19.5973 89.3508 19.0455 89.3323 18.4939C89.3234 17.3612 89.2789 16.2285 89.2166 15.0973C89.1469 13.8223 89.0402 12.5502 88.9527 11.2752C88.9423 11.1269 88.9527 10.9683 88.9527 10.7889C89.0625 10.7487 89.1772 10.7238 89.2937 10.7148C89.7266 10.7459 90.1581 10.7948 90.5895 10.8378C90.6503 10.8378 91.8972 10.8378 92.084 10.8378L93.2345 10.8185C93.4776 10.8185 93.5206 11.0024 93.5473 11.1758C93.6585 11.883 93.8038 12.5902 93.8438 13.3034C93.9298 14.6377 93.9921 15.9631 93.9921 17.293C94.0069 19.2036 93.9931 21.1157 93.9506 23.0292C93.912 24.7846 93.8201 26.5385 93.7504 28.2939C93.6885 29.3227 93.47 30.3361 93.1025 31.2991C92.9854 31.6743 92.8366 32.0388 92.6577 32.3888C92.4046 32.8759 92.101 33.3351 91.7519 33.7587C91.4005 34.1546 90.9779 34.5148 90.3731 34.5C90.1965 34.5083 90.0212 34.5341 89.8497 34.5771C88.5524 34.7965 87.4153 34.3191 86.3241 33.7217C85.1973 33.1049 84.416 32.1412 83.7711 31.053C83.3184 30.2301 82.9508 29.3633 82.6739 28.4659C82.3359 27.4844 81.99 26.5049 81.6361 25.5274C81.6075 25.4719 81.5721 25.4201 81.5309 25.3732ZM74.0186 19.1744C74.155 18.9595 74.2632 18.7786 74.3818 18.6066C74.8369 17.9483 75.2713 17.2723 75.7606 16.6422C76.1671 16.1309 76.5119 15.5736 76.788 14.9817C76.8533 14.8334 76.8992 14.6851 76.9689 14.488C76.8398 14.4699 76.7094 14.4619 76.579 14.4642C75.8066 14.5487 75.0297 14.6125 74.2602 14.7341C72.0912 15.0602 70.1371 15.932 68.3224 17.1359C66.5655 18.3012 65.4922 19.9721 64.828 21.9335C64.7752 22.0801 64.767 22.239 64.8042 22.3902C64.974 23.0037 65.2778 23.5719 65.6938 24.0537C65.931 24.3146 66.1845 24.3502 66.5062 24.2642C67.281 24.0612 68.033 23.7801 68.7509 23.425C69.3543 23.1285 69.9814 22.8557 70.53 22.4836C71.1255 22.0695 71.6881 21.6101 72.2128 21.1092C72.699 20.6644 73.1305 20.15 73.5827 19.6637C73.7413 19.5021 73.8836 19.3286 74.0186 19.1744Z" fill="#F9550D"/>
<path d="M122.749 14.8748L122.58 14.8348C122.58 14.9026 122.592 14.9698 122.615 15.0334C122.809 15.3166 122.763 15.6191 122.719 15.9319C122.617 16.8215 122.535 17.6991 122.44 18.5828C122.413 18.817 122.366 19.0483 122.322 19.3241C121.376 19.4872 120.406 19.4723 119.425 19.4353C119.353 20.1395 119.285 20.7993 119.221 21.4605C119.121 22.5146 119.011 23.5687 118.925 24.6258C118.869 25.3508 118.849 26.0788 118.82 26.8067C118.746 28.528 118.843 30.2538 118.652 31.9751C118.448 33.8238 118.322 35.6815 118.161 37.5348C118.105 38.1871 118.049 38.8395 117.997 39.4918C117.96 39.9633 117.813 40.0937 117.336 40.0982C116.446 40.1041 115.556 40.1155 114.667 40.1323C114.209 40.1412 114.178 40.1249 114.179 39.6801C114.179 38.1634 114.151 36.6452 114.2 35.13C114.259 33.2189 114.384 31.3094 114.48 29.3998C114.529 28.4242 114.557 27.4472 114.628 26.4731C114.744 24.9387 114.885 23.4086 115.023 21.8771C115.082 21.2144 115.158 20.5531 115.223 19.8904C115.223 19.8175 115.218 19.7447 115.208 19.6725C114.953 19.6725 114.71 19.6725 114.467 19.6725C112.499 19.7436 110.532 19.7081 108.59 19.376C107.506 19.1906 106.447 18.86 105.374 18.6139C104.539 18.4301 103.739 18.1159 103.002 17.6828C102.756 17.5346 102.481 17.4382 102.186 17.3018C102.154 17.3895 102.129 17.4798 102.111 17.5716C102.004 18.9297 101.911 20.2878 101.797 21.6443C101.725 22.5042 101.611 23.3597 101.542 24.2181C101.408 25.8964 101.294 27.5762 101.165 29.2589C101.131 29.7141 101.083 30.1678 101.032 30.6214C100.959 31.2412 100.883 31.8594 100.799 32.4776C100.785 32.5785 100.76 32.6778 100.731 32.8275L98.6979 32.7312C98.6979 32.4791 98.686 32.2731 98.6979 32.0685C98.8002 30.5651 98.8832 29.0588 99.0241 27.5584C99.1338 26.3797 99.3206 25.21 99.4688 24.0343C99.6349 22.6614 99.7965 21.29 99.9388 19.9156C100.04 18.9445 100.105 17.969 100.186 16.9949C100.197 16.8808 100.201 16.7666 100.215 16.6539C100.226 16.5867 100.213 16.5176 100.177 16.4593C100.142 16.401 100.087 16.3575 100.022 16.3366C99.5015 16.1024 98.9766 15.8741 98.4636 15.6235C97.9486 15.3857 97.4472 15.1194 96.9618 14.8259C96.7121 14.6699 96.5082 14.4505 96.371 14.1901C96.2337 13.9296 96.168 13.6374 96.1805 13.3433C96.1805 12.2832 96.2264 11.2232 96.2427 10.1631C96.2422 10.0424 96.2686 9.92318 96.3199 9.81395C96.3712 9.70471 96.4461 9.60825 96.5392 9.53154C96.8235 9.27588 97.1382 9.05628 97.4762 8.87771C98.4562 8.41811 99.5222 8.26985 100.59 8.12159L101.319 8.02225C101.66 6.15863 102.182 2.22086 102.209 1.94362C102.581 1.84577 102.994 1.96586 103.378 1.96882C103.395 2.98885 103.275 3.97626 103.221 4.96515C103.168 5.95404 103.119 6.95182 103.073 7.97481C103.196 7.98816 103.295 8.00595 103.395 8.00891C104.766 8.05191 106.138 8.10528 107.51 8.129C108.677 8.14828 109.792 8.44628 110.92 8.70277C111.711 8.88216 112.496 9.11938 113.293 9.2113C114.182 9.31211 115.097 9.27653 116 9.29729C116.07 9.28923 116.138 9.27331 116.204 9.24984C116.225 9.12086 116.25 8.99039 116.268 8.85992C116.565 6.6983 116.667 4.50999 117.131 2.37357C117.279 1.68565 117.543 1.02441 117.76 0.352794C117.787 0.238401 117.856 0.138449 117.953 0.0730001C118.051 0.00755128 118.17 -0.0185496 118.286 -6.34193e-05C118.722 0.0355188 119.158 0.0444144 119.594 0.0651707C119.89 0.0785141 119.979 0.146713 120.013 0.449163C120.049 0.748866 120.068 1.05027 120.071 1.35206C120.095 3.65898 120.115 5.9654 120.132 8.27133C120.132 8.63308 120.132 8.99335 120.132 9.3729C120.529 9.46084 120.942 9.44964 121.334 9.34028C122.027 9.19202 122.713 9.31063 123.382 9.37438C123.487 9.68721 122.907 14.5842 122.749 14.8748Z" fill="#F9550D"/>
<path d="M12.8008 1.58816C12.8209 1.87098 12.8209 2.15487 12.8008 2.43769C12.6525 3.47551 12.5043 4.51332 12.3026 5.55114C11.9053 7.56154 11.5213 9.56749 11.0588 11.5645C10.3604 14.5816 9.60581 17.5854 8.85562 20.5906C8.48645 22.0732 8.05205 23.538 7.68733 25.0206C7.37895 26.2719 7.12691 27.541 6.85115 28.7953C6.84505 28.8633 6.84505 28.9318 6.85115 28.9999C6.91966 29.0117 6.9893 29.0157 7.05871 29.0117C8.50869 28.7434 9.95422 28.4557 11.4086 28.2096C12.0921 28.094 12.7904 28.0614 13.4843 27.9828C14.4643 27.8746 15.4472 27.7767 16.4243 27.6448C17.8031 27.458 19.1774 27.2445 20.5533 27.0413C20.7564 27.0102 20.958 26.9746 21.2234 26.9301C21.2234 27.1184 21.2323 27.2682 21.2234 27.415C21.1878 27.9205 21.1463 28.4246 21.1048 28.9302C21.0455 29.6403 21.0366 30.3609 20.9076 31.0592C20.8038 31.627 20.8587 32.1859 20.8172 32.7464C20.7697 33.375 20.6689 33.9977 20.6052 34.6248C20.5666 34.9955 20.5592 35.3661 20.5103 35.7397C20.4947 35.8675 20.4305 35.9843 20.3309 36.0659C19.1594 36.8389 17.9227 37.5081 16.6348 38.0659C16.011 38.3177 15.366 38.5132 14.7074 38.6501C13.2248 38.9792 11.7422 39.2698 10.2596 39.5678C9.18623 39.7828 8.10691 39.7012 7.02906 39.5974C6.32631 39.5307 5.62356 39.4403 4.91933 39.3928C4.30998 39.3513 3.92895 39.0296 3.66505 38.5137C3.56572 38.3194 3.44711 38.1371 3.34333 37.9458C3.07475 37.4627 2.94061 36.9165 2.95489 36.3639C2.99047 35.1482 3.00233 33.9324 3.02457 32.7152C3.03791 31.9591 3.07646 31.2015 3.0646 30.4439C3.04533 29.3542 3.23807 28.2941 3.42042 27.2267C3.63985 25.9294 4.095 24.6988 4.45824 23.4416C4.80665 22.2229 5.16544 21.0057 5.55981 19.8018C6.03127 18.3608 6.57687 16.9434 7.03499 15.5023C7.60431 13.7069 8.30409 11.9634 9.02167 10.2243C9.38935 9.29469 9.69625 8.34435 10.0387 7.41328C10.5458 6.02952 11.0543 4.64577 11.5643 3.26201C11.7407 2.7861 11.9038 2.30426 12.1084 1.8402C12.2685 1.47104 12.3901 1.44583 12.8008 1.58816Z" fill="#F9550D"/>
</g>
<defs>
<clipPath id="clip0_674_485">
<rect width="123.75" height="40" fill="white"/>
</clipPath>
</defs>
</svg>
