<svg width="600" height="334" viewBox="0 0 600 334" fill="none" xmlns="http://www.w3.org/2000/svg">
<g clip-path="url(#clip0_673_259)">
<path d="M156.332 297.422L160.591 298.082C161.507 298.227 162.423 298.352 163.333 298.517C164.003 298.61 164.627 298.906 165.123 299.366C165.618 299.826 165.96 300.427 166.102 301.088C166.722 303.507 167.137 305.854 166.636 308.438C165.37 315.031 164.434 321.623 163.34 328.215C163.168 329.277 162.832 330.312 162.628 331.136C158.455 331.241 154.611 330.767 150.511 330.365C150.481 329.82 150.481 329.274 150.511 328.73C151.078 323.403 151.678 318.083 152.245 312.756C152.515 310.225 152.673 307.687 153.016 305.175C153.202 303.954 153.55 302.764 154.051 301.635C154.658 300.277 155.482 298.985 156.332 297.422Z" fill="#F9550D"/>
<path d="M191.904 60.1686C190.062 60.1004 188.225 59.9376 186.4 59.6808C184.491 59.3219 182.616 58.7991 180.796 58.1184C177.889 57.0174 175.45 57.8547 173.182 59.6478C173.017 59.7562 172.876 59.8971 172.767 60.0617C172.658 60.2263 172.584 60.4114 172.549 60.6056C172.514 60.7997 172.519 60.9991 172.563 61.1914C172.607 61.3837 172.69 61.565 172.806 61.7244C173.802 63.635 175.242 65.2784 177.005 66.5162C178.769 67.7541 180.804 68.5502 182.939 68.8376C183.946 68.97 184.97 68.8499 185.919 68.4882C190.447 66.7412 194.963 64.9415 199.42 63.0297C201.178 62.2065 202.876 61.2614 204.502 60.2015C205.09 59.8662 205.593 59.4017 205.975 58.8432C206.356 58.2848 206.606 57.6469 206.704 56.9779C207.159 53.9256 206.836 51.1502 204.285 48.9022C201.08 46.1019 197.504 43.7571 193.658 41.934C193.235 41.7497 192.793 41.6147 192.34 41.5319C186.54 40.1416 180.456 40.5345 174.883 42.6592C170.189 44.4919 165.469 46.3707 161.513 49.6274C155.521 54.5914 151.513 60.7224 150.682 68.6332C150.566 69.9747 150.721 71.3257 151.136 72.6064C151.552 73.8871 152.22 75.0714 153.102 76.0892C155.142 78.5533 157.621 80.6186 160.413 82.1806C164.311 84.4155 168.538 86.0197 172.938 86.9337C175.575 87.5336 178.087 87.026 180.631 86.5711C185.45 85.7075 190.302 84.9494 195.075 83.8748C197.723 83.2475 200.299 82.3484 202.762 81.1917C206.994 79.214 211.148 77.0979 215.288 74.9026C218.554 73.1362 221.409 70.6985 223.667 67.7498C227.61 62.5467 230.682 56.738 232.764 50.5503C232.969 50.0644 233.034 49.5308 232.951 49.01C232.869 48.4891 232.642 48.0018 232.296 47.6035C225.229 38.3741 216.309 32.0454 204.799 29.659C201.272 28.9272 197.732 28.2416 194.199 27.5231C191.41 26.9495 188.674 27.4769 185.945 27.9779C180.107 28.9461 174.341 30.3072 168.686 32.052C164.124 33.5353 159.912 35.7306 155.732 38.0247C153.754 39.1125 151.777 40.2793 149.924 41.5319C146.304 43.9373 143.075 46.8857 140.352 50.2734C136.462 55.0859 133.825 60.5839 131.709 66.3193C130.088 70.7428 128.901 75.3179 127.437 79.8007C126.716 82.0572 126.636 84.4697 127.207 86.7689C128.393 92.0098 129.705 97.2047 132.059 102.07C134.342 106.617 137.119 110.899 140.339 114.839C142.916 118.089 145.454 121.432 148.309 124.398C150.547 126.606 152.961 128.628 155.528 130.443C158.866 133.06 162.352 135.481 165.97 137.695C169.141 139.534 172.688 140.747 176.083 142.204C176.521 142.355 176.983 142.427 177.447 142.415C183.494 142.665 189.546 142.048 195.418 140.583C205.966 137.801 216.336 134.524 226.719 131.235C229.441 130.371 232.045 129.145 234.709 128.103C235.467 127.807 236.245 127.563 237.075 127.266C237.735 128.644 238.308 129.844 238.875 131.05C242.712 139.205 246.476 147.379 249.225 155.989C249.884 158.138 250.9 160.188 251.763 162.278C252.686 164.52 252.469 165.818 250.57 167.269C249.228 168.318 247.765 169.203 246.213 169.906C240.154 172.543 234.096 175.179 227.938 177.599C224.372 178.983 220.647 179.966 216.956 181.001C212.644 182.207 208.313 183.354 203.949 184.376C197.58 185.872 191.14 186.729 184.567 186.169C178.766 185.668 172.951 185.272 167.15 184.778C163.867 184.493 160.674 183.558 157.756 182.029C152.133 179.115 146.371 176.425 141.163 172.8C136.884 169.813 132.784 166.557 128.677 163.333C127.455 162.272 126.312 161.124 125.255 159.898C124.61 159.111 123.926 158.356 123.205 157.637C120.304 155.185 118.59 151.928 117.048 148.573C116.033 146.404 114.833 144.307 113.93 142.092C112.684 139.02 111.293 135.935 110.594 132.718C109.418 127.501 108.564 122.217 108.036 116.896C107.469 110.778 107.377 104.615 107.245 98.4704C107.054 90.7111 106.968 82.9453 106.909 75.1795C106.938 69.7954 107.842 64.4518 109.585 59.3577C110.633 56.1011 111.748 52.8642 113.026 49.6999C114.668 45.639 116.323 41.5649 118.3 37.6688C121.148 32.1114 124.57 26.9034 129.507 22.8622C134.191 19.0292 139.422 15.9183 145.026 13.6329C148.223 12.3144 151.421 10.9366 154.71 9.87522C160.531 7.99639 166.576 7.09323 172.608 6.15711C179.26 5.12211 185.872 5.5638 192.524 6.15711C199.163 6.77998 205.765 7.75261 212.301 9.07095C222.19 11.0487 231.149 15.0041 238.671 21.8734C240.622 23.7324 242.56 25.7102 244.433 27.6879C247.386 30.8193 248.619 34.7615 249.107 38.8949C249.386 41.6963 249.461 44.5143 249.331 47.3266C249.192 51.994 248.922 56.6614 248.625 61.3223C248.283 66.761 246.753 71.9558 245.27 77.144C243.86 82.2243 241.858 87.1209 239.304 91.733C238.057 93.7897 236.69 95.7709 235.21 97.6661C234.551 98.5825 233.522 99.1164 232.87 100.145C232.131 101.096 231.204 101.883 230.147 102.459C226.139 105.096 222.177 107.845 218.017 110.225C213.967 112.492 209.491 113.895 204.872 114.345C202.63 114.589 200.422 115.123 198.2 115.518C192.671 116.456 187.036 116.591 181.469 115.92C179.267 115.677 177.045 115.584 174.837 115.347C170.288 114.866 166.023 113.29 161.751 111.8C153.926 109.071 148.619 103.461 144.347 96.6377C142.108 93.1022 140.879 89.0214 140.794 84.8373C140.688 80.2622 140.517 75.6871 140.543 71.112C140.494 68.9874 140.74 66.8663 141.275 64.8096C142.47 60.5484 143.927 56.3652 145.639 52.2841C147.419 48.2298 150.722 45.2632 154.275 42.7053C160.327 38.3412 167.269 36.1129 174.507 34.7945C182.181 33.3705 189.59 34.5703 196.855 37.1677C199.69 38.1764 202.63 38.9938 204.852 41.1232C206.711 42.9163 208.735 44.6897 210.06 46.852C212.255 50.4514 213.02 54.3541 210.719 58.4018C208.736 61.7546 206.148 64.7098 203.085 67.117C198.555 70.9385 193.549 74.1581 188.193 76.6957C184.078 78.507 179.648 79.4947 175.153 79.603C171.254 79.7169 167.386 78.8678 163.893 77.1308C163.35 76.9275 162.871 76.5846 162.503 76.1366C162.135 75.6887 161.891 75.1516 161.797 74.5796C161.671 73.8982 161.593 73.2086 161.566 72.5161C161.461 68.4948 161.5 64.4668 161.25 60.4521C161.026 56.8724 162.489 54.5189 165.706 53.1147C166.715 52.673 167.684 52.0665 168.62 51.526C172.747 49.212 177.065 47.7683 181.877 48.5462C184.343 48.9483 186.815 49.2977 189.261 49.7856C191.482 50.2339 192.254 51.2227 192.214 53.4575C192.175 55.5605 192.023 57.6701 191.904 60.1686Z" fill="#F9550D"/>
<path d="M342.145 232.098C343.384 232.151 343.384 232.89 343.292 233.621C343.114 235.039 342.87 236.449 342.633 237.873C341.568 245.248 339.504 252.443 336.495 259.259C335.335 261.896 334.419 264.711 333.067 267.269C330.826 271.521 327.879 275.259 323.733 277.85C322.65 278.466 321.5 278.955 320.304 279.307C315.34 280.955 310.225 281.08 305.069 280.698C303.395 280.554 301.802 279.913 300.494 278.858C299.298 277.914 298.154 276.906 297.066 275.839C295.851 274.666 295.142 273.064 295.089 271.376C295.006 269.766 295.006 268.153 295.089 266.544C295.172 263.587 295.425 260.638 295.847 257.71C296.986 251.049 298.95 244.556 301.694 238.381C302.413 236.799 303.29 235.283 303.962 233.674C304.503 232.356 304.727 230.945 305.28 229.659C307.074 225.598 308.893 221.551 310.838 217.562C313.125 212.868 315.452 208.168 317.958 203.613C320.041 199.868 322.381 196.242 324.827 192.722C326.106 190.883 327.859 189.373 329.382 187.705C330.272 186.73 330.299 186.446 329.481 185.444C328.664 184.442 327.892 183.638 327.081 182.754C324.445 179.893 321.148 179.742 317.595 180.44C314.029 181.102 310.708 182.715 307.983 185.108C306.006 186.868 304.826 189.202 303.566 191.443C299.4 198.86 295.181 206.25 291.311 213.818C288.978 218.53 286.918 223.372 285.141 228.321C283.025 233.977 281.185 239.732 279.346 245.461C278.258 248.889 277.414 252.396 276.472 255.877C274.995 261.362 273.38 266.814 272.101 272.358C270.921 277.441 270.156 282.609 269.121 287.725C267.803 294.245 266.484 300.771 265.021 307.252C263.798 312.714 262.077 318.052 259.879 323.199C259.16 324.853 258.29 326.436 257.479 328.044C257.338 328.364 257.099 328.631 256.797 328.807C256.496 328.984 256.146 329.06 255.798 329.026C254.657 328.987 253.517 329.026 252.284 329.026C252.173 328.557 252.107 328.078 252.086 327.596C252.383 323.963 252.436 320.278 253.088 316.705C253.945 312.031 255.336 307.476 256.385 302.822C257.94 296.117 259.496 289.406 260.907 282.669C262.371 275.661 263.485 268.574 265.08 261.573C266.273 256.365 267.981 251.269 269.471 246.127C269.595 245.683 269.779 245.257 270.018 244.861C270.229 244.512 270.552 244.235 270.624 243.866C270.675 243.161 270.788 242.462 270.96 241.776C273.597 234.188 276.419 226.66 279.531 219.237C282.998 210.97 287.903 203.626 292.992 196.348C295.346 192.979 297.574 189.518 299.888 186.123C301.206 184.178 302.525 182.234 303.988 180.368C305.518 178.39 307.68 177.118 309.875 176.063C312.908 174.6 316.033 173.288 319.19 172.108C323.39 170.558 327.629 170.928 331.854 172.226C334.719 173.029 337.316 174.584 339.376 176.729C339.569 176.927 339.776 177.11 339.996 177.276C340.128 177.351 340.267 177.413 340.411 177.461C340.814 177.247 341.204 177.009 341.578 176.749C345.999 173.377 351.432 171.602 356.991 171.712C361.322 171.765 365.66 172.246 369.972 172.727C372.176 173.01 374.35 173.495 376.465 174.178C378.291 174.731 379.524 176.215 380.671 177.665C382.87 180.551 384.152 184.03 384.35 187.653C384.679 191.562 384.04 195.399 383.69 199.255C383.117 205.795 382.497 212.334 381.785 218.861C381.462 221.788 380.823 224.689 380.407 227.609C379.939 230.905 379.511 234.201 379.155 237.498C378.667 242.046 378.205 246.595 377.836 251.157C377.546 254.704 377.309 258.264 377.243 261.817C377.126 264.263 377.278 266.715 377.698 269.128C378.177 270.906 378.996 272.574 380.111 274.039C380.987 275.312 383.512 275.45 385.279 274.56C388.215 273.206 390.558 270.83 391.872 267.875C393.948 262.885 395.827 257.809 397.653 252.713C399.479 247.617 400.244 242.165 401.055 236.746C401.786 231.822 401.463 232.507 405.636 232.085C409.249 231.723 412.921 231.934 416.56 231.914C417.085 231.964 417.605 232.054 418.116 232.184C418.323 233.356 418.442 234.541 418.472 235.731C418.267 240.491 417.813 245.237 417.727 249.99C417.602 258.211 417.358 266.471 418.683 274.606C418.927 276.76 419.286 278.899 419.757 281.014C420.247 282.94 421.024 284.78 422.065 286.473C424.161 289.709 425.031 289.452 427.187 286.829C428.908 284.739 429.751 282.214 430.483 279.696C431.751 275.103 432.59 270.402 432.988 265.654C433.127 264.085 433.357 262.529 433.582 260.973C433.669 260.57 433.791 260.176 433.944 259.793C436.034 259.22 437.959 258.613 439.917 258.178C442.824 257.519 445.725 258.059 448.606 258.501C448.848 258.587 449.067 258.728 449.246 258.912C449.425 259.096 449.56 259.318 449.641 259.562C449.801 260.283 449.837 261.025 449.746 261.758C449.232 268.027 448.751 274.283 448.138 280.546C447.775 284.225 447.162 287.87 446.72 291.542C445.975 297.732 445.342 303.942 444.538 310.126C444.034 313.849 442.892 317.457 441.163 320.793C440.176 322.827 438.795 324.647 437.102 326.146C435.493 327.464 433.278 328.123 431.294 328.974C430.554 329.234 429.796 329.439 429.026 329.587C423.344 331.162 418.815 329.139 414.872 325.13C411.741 321.94 409.315 318.241 406.882 314.536C406.645 314.174 406.335 313.877 405.814 313.218C405.544 313.679 405.392 313.963 405.214 314.233C403.074 317.485 400.352 320.315 397.185 322.579C392.966 325.565 388.411 327.912 383.038 328.018C381.416 328.051 379.794 328.051 378.186 328.183C375.107 328.427 372.569 327.214 370.321 325.322C369.166 324.324 368.106 323.22 367.157 322.025C363.013 316.976 359.746 311.267 357.492 305.136C356.345 301.978 355.917 298.695 355.271 295.438C354.367 290.824 354.723 286.209 355.007 281.594C355.336 276.103 355.482 270.598 356.002 265.113C356.543 259.365 357.4 253.642 358.178 247.92C358.547 245.224 358.975 242.521 359.496 239.851C360.281 236.014 360.333 232.118 360.584 228.235C360.98 222.052 361.481 215.881 361.982 209.711C362.116 209.156 362.338 208.626 362.641 208.142C362.562 207.693 362.265 207.1 362.397 206.625C363.432 202.947 362.133 199.994 359.635 197.396C357.657 195.366 355.594 193.441 353.003 192.234C350.959 191.265 348.896 191.476 346.78 192.076C346.78 193.731 346.714 195.287 346.78 196.842C346.944 201.095 346.741 205.354 346.173 209.572C345.351 216.411 344.516 223.243 343.668 230.068C343.642 231.083 343.714 232.145 342.145 232.098ZM316.87 246.773L317.054 246.727C317.162 246.112 317.314 245.507 317.509 244.914C318.36 242.824 319.302 240.767 320.146 238.664C322.124 233.635 324.036 228.591 325.974 223.548C327.859 218.637 329.771 213.739 331.597 208.801C332.415 206.593 333.067 204.325 333.733 202.07C333.912 201.678 333.998 201.25 333.985 200.819C333.973 200.388 333.862 199.966 333.661 199.585C331.683 201.497 329.705 203.164 328.044 205.116C323.429 210.489 320.133 216.685 316.883 222.915C314.635 227.246 312.493 231.637 310.291 235.988C309.803 236.95 309.17 237.847 308.768 238.836C307.753 241.4 306.909 244.037 305.841 246.575C303.953 250.793 302.369 255.139 301.101 259.582C300.713 260.781 300.776 262.079 301.279 263.234C301.938 264.639 303.257 265.212 304.575 264.428C305.825 263.738 306.972 262.877 307.983 261.87C311.091 258.751 313.476 254.988 314.971 250.847C315.531 249.458 316.16 248.099 316.857 246.773H316.87Z" fill="#F9550D"/>
<path d="M362.529 112.822C362.351 113.005 362.186 113.198 362.034 113.402C358.402 119.026 354.816 124.682 351.144 130.272C349.522 132.738 347.768 135.118 345.982 137.465C345.58 137.992 344.775 138.21 344.004 138.658L344.241 139.251C344.081 139.512 343.903 139.761 343.708 139.996C340.148 143.695 336.456 147.208 332.138 150.069C328.241 152.546 324.177 154.749 319.975 156.662C317.021 158.079 313.818 158.521 310.554 158.725C306.5 158.982 302.452 159.384 298.398 159.754C296.967 159.879 295.537 159.925 294.113 160.11C290.916 160.525 288.43 159.233 286.057 157.222C283.553 155.186 281.294 152.865 279.326 150.307C277.965 148.391 276.803 146.341 275.859 144.189C274.184 140.524 273.795 136.542 273.413 132.573C272.892 127.075 273.116 121.584 273.36 116.092C273.63 110.093 273.769 104.081 274.019 98.0752C274.07 94.6024 274.628 91.1556 275.674 87.8438C278.224 80.5321 282.463 73.9254 288.048 68.561C292.735 63.9464 298.444 61.2369 304.588 59.3317C310.732 57.4265 317.114 56.5101 323.475 55.5872C327.029 55.073 330.628 54.717 334.214 54.539C338.519 54.2941 342.834 54.7528 346.99 55.897C347.336 55.9725 347.686 56.0254 348.039 56.0553C348.059 55.7694 348.033 55.482 347.96 55.2048C345.072 49.7529 341.901 44.4724 337.412 40.1676C335.672 38.5756 333.738 37.209 331.657 36.1001C328.426 34.3004 325.018 32.8435 321.768 31.1031C318.795 29.5209 315.485 29.0265 312.315 28.1563C304.06 26.2414 295.554 25.6385 287.112 26.3697C285.088 26.5345 283.044 26.5807 281.014 26.5741C275.925 26.5741 270.842 26.4818 265.759 26.3961C264.929 26.3618 264.104 26.2515 263.294 26.0665C262.872 26.0154 262.485 25.8072 262.21 25.4834C261.935 25.1595 261.792 24.7439 261.81 24.3195C261.81 22.2363 261.81 20.1597 261.771 18.0765C261.766 17.7521 261.872 17.4358 262.071 17.1794C262.27 16.9231 262.55 16.7419 262.865 16.6657C266.454 15.2744 270.269 14.557 274.118 14.5496C278.647 14.51 283.183 14.5034 287.712 14.4902C293.928 14.4902 300.066 15.367 306.223 16.0329C313.244 16.791 320.067 18.4325 326.857 20.2586C329.241 20.9865 331.553 21.9287 333.766 23.0735C336.311 24.2865 338.801 25.605 341.235 27.029C343.773 28.3915 345.906 30.3995 347.419 32.85C347.578 33.2122 347.706 33.5871 347.801 33.9708C348.35 34.4179 348.849 34.9217 349.291 35.4738C352.311 40.016 355.389 44.5186 358.217 49.1794C359.813 51.8164 360.94 54.7302 362.311 57.5056C363.9 60.7359 365.607 63.9332 367.117 67.1832C368.627 70.4333 370.209 73.6569 370.98 77.2168C371.382 78.5335 371.949 79.794 372.668 80.9679C374.909 85.3716 377.157 89.7688 379.451 94.1527C380.691 96.526 382.662 98.3125 384.547 100.139C385.675 101.233 386.934 102.182 388.153 103.178C388.569 103.52 389.05 103.791 389.683 104.219C390.342 103.402 391.001 102.696 391.489 101.912C394.007 98.1345 395.497 93.889 396.559 89.538C397.079 87.1398 397.3 84.6863 397.218 82.2337C397.178 77.1971 396.981 72.1605 396.704 67.1305C396.394 61.461 395.919 55.8048 395.53 50.1353C395.484 49.4761 395.53 48.7707 395.53 47.973C396.018 47.7943 396.528 47.6834 397.047 47.6434C398.972 47.7818 400.89 47.9994 402.808 48.1905C403.079 48.1905 408.623 48.1905 409.453 48.1905L414.569 48.1048C415.65 48.1048 415.841 48.9223 415.96 49.6936C416.455 52.8382 417.101 55.9827 417.279 59.1537C417.661 65.0868 417.938 70.9804 417.938 76.8938C418.004 85.3892 417.942 93.8912 417.753 102.4C417.582 110.205 417.173 118.004 416.863 125.809C416.588 130.384 415.616 134.89 413.982 139.172C413.462 140.84 412.8 142.461 412.005 144.018C410.879 146.184 409.529 148.225 407.977 150.109C406.414 151.869 404.536 153.471 401.846 153.405C401.061 153.442 400.281 153.557 399.519 153.748C393.75 154.724 388.694 152.601 383.842 149.944C378.832 147.202 375.358 142.917 372.49 138.078C370.477 134.419 368.842 130.565 367.612 126.574C366.108 122.21 364.57 117.855 362.997 113.508C362.869 113.261 362.712 113.031 362.529 112.822ZM329.125 85.2596C329.732 84.3037 330.213 83.4994 330.74 82.7347C332.764 79.8077 334.696 76.8015 336.871 73.9998C338.679 71.7264 340.212 69.2482 341.44 66.6163C341.73 65.957 341.934 65.2978 342.244 64.421C341.67 64.3406 341.09 64.3053 340.51 64.3155C337.076 64.6913 333.621 64.9748 330.2 65.5153C320.555 66.9657 311.866 70.842 303.797 76.195C295.985 81.3766 291.212 88.8063 288.259 97.528C288.024 98.1796 287.988 98.886 288.153 99.5585C288.908 102.286 290.259 104.813 292.109 106.955C293.164 108.115 294.291 108.274 295.721 107.891C299.166 106.989 302.51 105.739 305.702 104.16C308.385 102.841 311.174 101.628 313.613 99.9738C316.261 98.1327 318.763 96.0896 321.096 93.8626C323.258 91.8849 325.176 89.5974 327.187 87.4351C327.892 86.7165 328.525 85.9452 329.125 85.2596Z" fill="#F9550D"/>
<path d="M11.563 291.008C13.2045 291.094 14.6746 291.12 16.1381 291.259C24.9273 292.17 33.7795 292.311 42.5934 291.68C45.2303 291.476 47.7882 290.83 50.3856 290.402C53.807 289.828 57.2285 289.274 60.6433 288.694C61.6915 288.516 62.7199 288.246 63.7681 288.081C64.4444 288.002 65.1243 287.958 65.8052 287.949C66.4678 287.629 67.1505 287.351 67.8488 287.119C71.9031 286.031 76.0102 285.141 80.025 283.882C83.1868 282.867 86.2958 281.694 89.34 280.368C92.4846 279.049 95.5566 277.533 98.6287 276.043C99.4405 275.568 100.214 275.03 100.943 274.435C100.656 273.802 100.331 273.187 99.9669 272.596C98.7474 270.855 97.4948 269.141 96.2356 267.427C93.4998 263.729 89.6433 261.824 85.2989 260.835C78.5011 259.286 71.4304 259.397 64.6845 261.158C60.5452 262.155 56.3283 262.797 52.0798 263.076C49.5067 263.315 46.9564 263.756 44.4524 264.395C39.0928 265.713 33.7134 266.728 28.156 266.695C24.6489 266.695 21.1351 266.992 17.6082 266.933C14.7403 266.859 11.9196 266.185 9.32814 264.955C6.07809 263.472 3.75098 261.105 1.66119 258.409C0.354324 256.635 -0.238596 254.435 -9.2905e-05 252.245C0.349304 247.129 0.738255 242.013 1.08765 236.891C1.37772 232.698 1.52275 228.486 1.95785 224.306C2.27054 221.974 2.75083 219.667 3.39499 217.404C3.96194 215.13 4.45636 212.835 5.17493 210.607C6.62526 206.072 8.13272 201.558 9.69732 197.066C10.4884 194.779 12.4134 193.381 14.1274 191.845C14.4452 191.649 14.8037 191.527 15.1756 191.489C15.5072 191.022 15.8922 190.595 16.3227 190.217C19.4343 188.16 22.9151 186.974 26.409 185.695C31.2478 183.915 36.3504 183.605 41.3606 182.787C46.8784 181.884 52.4226 181.166 57.947 180.276C62.6936 179.511 67.4533 179.86 72.2064 179.959C75.1202 180.019 78.0341 180.104 80.9281 180.388C83.8222 180.671 86.6042 181.139 89.4191 181.64C92.7153 182.227 96.0906 182.774 99.3473 183.618C103.672 184.765 107.298 187.039 109.539 191.12C110.66 193.164 110.455 195.339 110.231 197.495C109.673 203.059 109.062 208.619 108.399 214.174C108.115 216.6 107.08 222.216 105.959 224.3C103.322 225.236 93.9942 223.489 88.0874 222.981C83.3883 222.564 78.67 222.403 73.9534 222.5C70.1891 222.599 66.4249 223.284 62.6738 223.779C56.2989 224.609 49.9241 225.434 43.5558 226.37C38.2982 227.246 33.2217 228.985 28.5318 231.518C26.8033 232.497 25.2339 233.733 23.8776 235.184C21.3593 237.689 19.0058 240.352 16.6259 242.976C14.6152 245.171 14.6021 245.408 16.415 247.755C18.0103 249.812 19.9089 251.375 22.5723 251.948C28.2022 253.148 33.8387 254.045 39.6268 253.576C43.2196 253.28 46.8191 252.871 50.4185 252.917C56.1671 252.917 61.8497 252.344 67.5587 251.935C74.2237 251.454 80.9611 251.276 87.5996 252.713C90.4744 253.401 93.2677 254.393 95.9324 255.673C100.417 257.784 104.448 260.749 107.799 264.401C109.528 266.159 110.819 268.3 111.565 270.651C112.31 273.002 112.49 275.495 112.09 277.929C111.036 285.615 109.724 293.276 108.306 300.91C107.41 305.709 106.493 310.541 104.463 315.057C103.804 316.547 103.144 317.938 101.391 318.538C100.653 318.795 100.125 319.645 99.4132 319.955C96.0577 321.373 92.6955 322.81 89.2675 324.023C84.9099 325.559 80.5062 326.963 76.0827 328.275C73.8281 328.934 71.468 329.303 69.1739 329.745C65.5481 330.444 61.9222 331.063 58.2701 331.775C53.4473 332.655 48.5569 333.111 43.6547 333.14C34.2935 333.377 25.0049 332.356 15.6964 331.584C13.6264 331.413 11.5564 331.162 9.49295 330.925C8.17447 330.793 7.51523 330.503 7.62071 329.119C7.81848 326.403 7.891 323.68 8.14151 320.977C8.70846 314.998 9.34792 309.025 9.95442 303.046C10.2643 300.013 10.5411 296.974 10.8839 293.942C11.0613 292.953 11.2879 291.974 11.563 291.008Z" fill="#F9550D"/>
<path d="M545.804 66.1414L545.052 65.9634C545.053 66.2649 545.106 66.564 545.211 66.8467C546.074 68.1059 545.87 69.4507 545.672 70.8417C545.217 74.7972 544.855 78.6999 544.433 82.6289C544.314 83.6705 544.103 84.6989 543.905 85.9251C539.699 86.6503 535.388 86.5844 531.024 86.4196C530.707 89.5509 530.404 92.4846 530.121 95.4248C529.672 100.112 529.185 104.799 528.802 109.5C528.552 112.723 528.466 115.96 528.334 119.197C528.004 126.851 528.44 134.524 527.589 142.178C526.679 150.399 526.119 158.659 525.407 166.899C525.157 169.8 524.906 172.701 524.675 175.601C524.511 177.698 523.858 178.278 521.735 178.298C517.78 178.324 513.824 178.375 509.869 178.449C507.832 178.489 507.693 178.416 507.7 176.439C507.7 169.695 507.575 162.944 507.792 156.207C508.056 147.709 508.61 139.218 509.038 130.727C509.256 126.389 509.381 122.045 509.697 117.714C510.212 110.891 510.838 104.087 511.451 97.2772C511.715 94.3304 512.051 91.3902 512.341 88.4434C512.343 88.1192 512.321 87.7953 512.275 87.4743C511.141 87.4743 510.06 87.4743 508.979 87.4743C500.231 87.7908 491.483 87.6326 482.847 86.1559C478.028 85.3318 473.321 83.8617 468.548 82.7674C464.836 81.95 461.277 80.5528 458 78.6274C456.906 77.9681 455.686 77.5396 454.374 76.9331C454.229 77.3231 454.117 77.7244 454.038 78.1329C453.563 84.1716 453.148 90.2102 452.64 96.2422C452.324 100.066 451.816 103.87 451.506 107.687C450.913 115.149 450.405 122.618 449.832 130.101C449.68 132.125 449.469 134.142 449.239 136.159C448.916 138.915 448.579 141.664 448.204 144.413C448.144 144.861 448.032 145.303 447.9 145.969L438.862 145.54C438.862 144.419 438.809 143.503 438.862 142.593C439.317 135.909 439.686 129.211 440.312 122.539C440.8 117.298 441.631 112.097 442.29 106.869C443.029 100.765 443.747 94.6666 444.38 88.5555C444.828 84.2375 445.118 79.8997 445.481 75.5685C445.527 75.0609 445.547 74.5533 445.606 74.0522C445.657 73.7533 445.599 73.446 445.441 73.1868C445.284 72.9276 445.038 72.734 444.749 72.6415C442.435 71.5999 440.102 70.5846 437.821 69.4705C435.53 68.4132 433.301 67.2292 431.142 65.9238C430.032 65.2302 429.126 64.2547 428.515 63.0966C427.905 61.9385 427.613 60.6393 427.668 59.3314C427.668 54.6179 427.873 49.9043 427.945 45.1907C427.943 44.6542 428.06 44.1238 428.288 43.6381C428.516 43.1524 428.849 42.7235 429.264 42.3824C430.528 41.2456 431.927 40.2691 433.43 39.4751C437.788 37.4315 442.528 36.7723 447.274 36.113L450.518 35.6713C452.034 27.3847 454.354 9.8753 454.473 8.64252C456.128 8.20742 457.967 8.7414 459.674 8.75459C459.747 13.2902 459.213 17.6807 458.976 22.0778C458.738 26.4749 458.521 30.9116 458.316 35.4604C458.863 35.5197 459.305 35.5988 459.747 35.612C465.845 35.8032 471.943 36.0405 478.047 36.146C483.236 36.2317 488.193 37.5568 493.21 38.6972C496.724 39.4949 500.218 40.5497 503.758 40.9584C507.713 41.4067 511.781 41.2485 515.795 41.3408C516.106 41.3049 516.411 41.2342 516.705 41.1298C516.797 40.5563 516.909 39.9762 516.989 39.396C518.307 29.7843 518.762 20.0539 520.825 10.5543C521.485 7.49544 522.658 4.55524 523.621 1.56888C523.741 1.06023 524.048 0.615792 524.483 0.324772C524.917 0.0337519 525.445 -0.0823064 525.961 -0.00010705C527.899 0.15811 529.837 0.197665 531.775 0.289958C533.094 0.34929 533.489 0.65254 533.641 1.99739C533.799 3.33003 533.885 4.67024 533.898 6.01215C534.004 16.2699 534.094 26.5255 534.168 36.7789C534.168 38.3874 534.168 39.9893 534.168 41.677C535.935 42.068 537.772 42.0182 539.515 41.532C542.593 40.8727 545.646 41.4001 548.619 41.6836C549.087 43.0746 546.509 64.8493 545.804 66.1414Z" fill="#F9550D"/>
<path d="M56.9189 7.06041C57.0083 8.31797 57.0083 9.58029 56.9189 10.8379C56.2597 15.4525 55.6005 20.0672 54.7039 24.6819C52.9371 33.6212 51.2297 42.5407 49.1729 51.4206C46.0679 64.8361 42.7123 78.1923 39.3766 91.5551C37.7351 98.1475 35.8035 104.661 34.1818 111.253C32.8106 116.817 31.6899 122.46 30.4637 128.037C30.4366 128.34 30.4366 128.645 30.4637 128.947C30.7683 129 31.078 129.017 31.3866 129C37.834 127.807 44.2615 126.528 50.7287 125.433C53.7678 124.919 56.8728 124.774 59.958 124.425C64.3156 123.944 68.6864 123.508 73.0308 122.922C79.1617 122.091 85.2728 121.142 91.3906 120.239C92.2937 120.1 93.1903 119.942 94.3703 119.744C94.3703 120.581 94.4099 121.247 94.3703 121.9C94.2121 124.148 94.0275 126.389 93.8429 128.637C93.5792 131.795 93.5397 134.999 92.9661 138.104C92.5047 140.629 92.7486 143.114 92.564 145.606C92.3531 148.401 91.9048 151.17 91.6213 153.959C91.4499 155.607 91.4169 157.255 91.1994 158.916C91.1302 159.484 90.8445 160.004 90.4017 160.366C85.1928 163.804 79.6936 166.779 73.9669 169.26C71.1933 170.379 68.3252 171.248 65.3968 171.857C58.8044 173.321 52.212 174.613 45.6196 175.938C40.8467 176.894 36.0474 176.531 31.2548 176.07C28.13 175.773 25.0052 175.371 21.8738 175.16C19.1643 174.975 17.4701 173.545 16.2966 171.251C15.8549 170.387 15.3275 169.576 14.8661 168.726C13.6718 166.578 13.0754 164.149 13.1389 161.692C13.2971 156.286 13.3498 150.88 13.4487 145.468C13.508 142.106 13.6794 138.737 13.6267 135.368C13.541 130.523 14.398 125.809 15.2089 121.063C16.1846 115.294 18.2084 109.823 19.8236 104.232C21.3728 98.8133 22.9681 93.401 24.7217 88.0479C26.8181 81.6401 29.2441 75.3378 31.2811 68.93C33.8126 60.9466 36.9242 53.194 40.1149 45.4611C41.7498 41.3277 43.1145 37.1019 44.6373 32.9619C46.8919 26.809 49.1531 20.6561 51.4209 14.5032C52.2054 12.3871 52.9305 10.2445 53.8403 8.18112C54.5523 6.53961 55.0928 6.42754 56.9189 7.06041Z" fill="#F9550D"/>
<path d="M464.658 226.87L463.109 226.686C461.184 226.462 460.472 225.736 460.472 223.805C460.472 222.374 460.617 220.944 460.716 219.513C461.033 214.721 461.336 209.921 461.679 205.129C462.081 199.466 462.516 193.803 462.944 188.14C463.05 186.716 463.169 185.292 463.274 183.868C463.419 181.844 464.237 180.974 466.247 181.02C470.038 181.113 473.822 181.284 477.612 181.482C480.661 181.535 483.705 181.756 486.73 182.141C492.431 183.063 498.013 184.611 503.376 186.756C505.947 187.778 508.465 188.938 510.957 190.151C512.058 190.691 512.987 191.562 514.042 192.208C514.701 192.643 515.578 192.867 516.218 193.328C518.709 195.24 521.162 197.198 523.601 199.189C524.484 199.933 525.32 200.73 526.106 201.575C526.607 202.096 527.022 202.703 527.589 203.421C529.356 204.127 530.622 205.768 531.749 207.377C538.17 216.606 541.414 226.857 540.84 238.183C540.411 246.011 538.779 253.727 536.001 261.059C534.195 265.917 532.362 270.749 529.561 275.153C528.446 276.907 527.425 278.72 526.317 280.48C523.43 285.094 519.791 289.083 516.02 292.966C514.471 294.554 513.132 296.341 511.563 297.903C510.338 299.223 508.947 300.378 507.423 301.338C504.327 303.108 501.539 305.37 499.17 308.036C497.215 310.201 494.812 311.915 492.129 313.059C490.395 313.824 488.688 314.648 487.02 315.545C483.915 317.205 480.426 318.017 476.907 317.898C476.429 317.974 475.964 318.114 475.523 318.313C472.139 319.118 468.621 319.177 465.212 318.485C463.89 318.253 462.557 318.097 461.217 318.017C458.883 317.865 456.959 316.566 454.875 315.756C454.584 315.545 454.345 315.27 454.177 314.952C454.009 314.635 453.916 314.282 453.906 313.923C453.939 309.025 453.821 304.107 454.262 299.248C454.783 293.546 455.752 287.89 456.655 282.233C457.407 277.579 458.462 273.004 459.18 268.317C459.839 264.124 460.162 259.879 460.743 255.666C461.586 249.535 462.536 243.411 463.419 237.28C463.854 234.26 464.25 231.235 464.652 228.209C464.682 227.763 464.684 227.316 464.658 226.87ZM474.409 226.607C473.604 230.325 472.807 233.918 472.048 237.524C471.482 240.227 470.974 242.943 470.414 245.652C470.163 246.865 469.827 248.072 469.576 249.291C468.607 254.077 467.81 258.909 466.63 263.649C465.845 266.83 465.254 270.055 464.863 273.307C464.658 274.955 464.415 276.603 464.118 278.232C463.208 283.367 462.252 288.496 461.336 293.632C461.296 294.165 461.296 294.7 461.336 295.234C462.602 295.108 463.696 294.983 464.79 294.891C468.377 294.581 471.969 294.067 475.556 294.047C481.192 294.007 486.829 294.159 492.399 293.111C494.3 292.763 496.167 292.247 497.976 291.568C500.422 290.632 502.802 289.485 505.162 288.338C506.385 287.798 507.527 287.093 508.557 286.241C510.779 284.231 512.776 281.963 515.011 279.959C521.907 273.775 526.607 266.075 530.174 257.696C531.874 253.741 532.771 249.416 534.129 245.296C534.9 242.995 534.623 240.741 534.215 238.46C533.984 237.084 533.426 235.785 532.587 234.671C531.748 233.556 530.654 232.661 529.396 232.059C528.255 231.452 527.174 230.707 526.001 230.18C524.28 229.415 522.559 228.459 520.727 228.163C514.794 227.193 508.86 226.29 502.828 226.317C497.231 226.35 491.621 226.112 486.044 226.139C482.3 226.158 478.516 226.429 474.409 226.607Z" fill="#F9550D"/>
<path d="M580.045 282.504C579.979 283.961 579.933 285.424 579.84 286.875C579.583 290.936 579.247 294.99 579.069 299.051C578.964 301.398 579.069 303.758 579.135 306.111C579.208 310.258 579.353 314.411 579.333 318.564C579.333 321.458 579.076 324.359 578.931 327.26C578.931 327.537 578.931 327.813 578.885 328.09C578.654 329.686 577.995 330.239 576.452 329.903C576.041 329.756 575.601 329.708 575.168 329.763C574.735 329.818 574.321 329.975 573.96 330.22C573.758 330.328 573.528 330.372 573.301 330.345C569.807 330.081 566.399 330.734 562.984 331.301C562.529 331.376 562.067 331.403 561.606 331.38C559.688 331.261 557.855 331.776 555.989 332.039C553.932 332.303 551.869 333.14 549.713 332.395C549.344 332.27 548.757 332.58 548.342 332.817C547.024 333.549 545.619 333.371 544.242 333.509L543.984 333.127L545.257 331.248H544.169C544.104 331.115 544.059 330.973 544.037 330.826C544.189 327.53 544.162 324.168 544.545 320.878C545.329 314.174 546.391 307.509 547.228 300.811C547.742 296.638 548.006 292.439 548.48 288.285C548.889 284.752 549.337 281.218 549.951 277.738C550.887 272.352 551.216 266.913 551.724 261.487C552.528 252.884 553.491 244.294 554.42 235.698C555.079 229.501 555.653 223.278 556.556 217.114C557.835 208.333 559.364 199.591 560.835 190.843C561.21 188.615 561.79 186.42 562.259 184.205C562.357 183.763 562.397 183.315 562.489 182.722C561.982 182.761 561.632 182.774 561.296 182.827C556.635 183.532 551.988 184.337 547.314 184.917C544.918 185.134 542.513 185.215 540.108 185.161C539.438 185.095 538.776 184.965 538.13 184.772C538.13 182.919 538.13 181.133 538.13 179.346C538.13 177.955 538.196 176.571 538.17 175.186C538.17 174.125 538.664 173.69 539.653 173.598C542.64 173.321 545.633 173.05 548.619 172.721C553.755 172.056 558.933 171.765 564.111 171.851C564.348 171.828 564.582 171.781 564.81 171.712C565.469 168.831 566.188 165.911 566.913 162.852C568.198 162.931 569.385 162.997 570.572 163.089L579.946 163.841L580.605 163.887C582.174 164.032 582.418 164.236 582.537 165.832C582.655 167.427 582.695 169.042 582.774 170.697H587.725C591.232 170.697 594.739 170.638 598.24 170.75C599.941 170.802 600.02 171.06 599.954 172.727C599.908 173.881 599.901 175.041 599.855 176.195C599.796 177.606 599.565 177.883 598.134 177.995C595.497 178.199 592.86 178.318 590.223 178.529C588.246 178.694 586.268 178.931 584.29 179.155C583.75 179.221 583.216 179.359 582.53 179.498C582.464 180.559 582.365 181.561 582.359 182.563C582.28 188.993 582.216 195.421 582.168 201.846C582.102 210.768 582.051 219.689 582.016 228.611C582.016 234.696 582.108 240.787 581.93 246.872C581.673 255.97 581.225 265.061 580.816 274.145C580.711 276.498 580.48 278.845 580.262 281.192C580.161 281.677 580.008 282.15 579.807 282.603L580.045 282.504Z" fill="#F9550D"/>
<path d="M209.711 198.734L216.731 199.75C216.6 201.068 216.494 202.182 216.362 203.303C216.052 205.94 215.624 208.616 215.433 211.286C215.242 213.956 214.022 216.428 213.264 218.986C212.816 220.489 212.367 221.999 211.945 223.509C211.868 223.896 211.813 224.288 211.781 224.682C222.487 224.682 232.876 226.521 243.424 227.8C243.595 227.306 243.721 226.97 243.826 226.627C245.584 220.935 247.342 215.244 249.1 209.552C249.265 209.025 249.581 208.55 249.759 208.036C250.293 206.606 251.315 206.309 252.733 206.546C254.447 206.836 254.875 207.054 254.928 208.788C255.082 211.371 255.051 213.962 254.835 216.54C253.899 224.992 252.825 233.43 251.737 241.862C250.821 248.962 249.997 256.082 248.764 263.129C247.841 268.403 246.358 273.571 245.072 278.773C243.356 285.436 242.016 292.191 241.057 299.005C240.794 301.022 240.299 303 239.904 304.997C239.706 306.026 239.113 306.428 238.031 306.316C235.882 306.157 233.72 306.098 231.294 305.986C232.065 290.125 233.773 274.573 237.174 259.048C236.515 258.962 236.021 258.877 235.54 258.85C231.894 258.633 228.235 258.534 224.603 258.191C218.114 257.578 211.736 256.104 205.636 253.807C205.373 253.715 205.116 253.609 204.852 253.544C204.671 253.531 204.489 253.545 204.311 253.583C204.114 254.447 203.876 255.33 203.705 256.22C202.564 262.153 201.457 268.086 200.297 274.052C199.459 278.311 198.484 282.537 197.699 286.809C197 290.619 196.546 294.476 195.86 298.293C194.838 303.923 193.783 309.552 192.564 315.149C192.097 317.078 191.434 318.953 190.586 320.746C189.314 323.621 187.521 324.339 183.994 323.278C184.053 322.131 184.125 320.918 184.172 319.698C184.264 316.989 185.24 314.464 185.734 311.84C186.479 307.885 186.993 303.896 187.474 299.908C188.424 292.063 189.096 284.178 190.223 276.36C191.193 269.622 192.623 262.951 193.869 256.26C194.284 254.038 194.713 251.81 195.247 249.614C195.424 249.112 195.417 248.564 195.227 248.067C195.038 247.569 194.678 247.155 194.212 246.898C191.908 245.335 189.899 243.375 188.279 241.11C186.176 238.137 185.176 234.523 185.451 230.892C185.474 230.626 185.55 230.367 185.676 230.132C185.802 229.896 185.974 229.688 186.182 229.521C189.386 227.246 192.775 225.401 196.882 225.526C197.805 225.559 198.728 225.434 199.651 225.44C200.442 225.44 200.778 225.071 201.002 224.346C202.98 217.806 205.004 211.267 207.08 204.753C207.634 202.993 208.399 201.312 209.13 199.605C209.297 199.297 209.491 199.006 209.711 198.734Z" fill="#F9550D"/>
<path d="M169.101 200.699C168.923 202.261 168.811 203.619 168.587 204.958C168.541 205.254 168.145 205.531 167.855 205.729C164.948 207.707 162.047 209.645 159.12 211.576C156.886 213.046 154.717 214.662 152.357 215.894C148.731 217.773 145.916 220.628 142.995 223.331C141.065 225.184 139.28 227.183 137.656 229.31C136.729 230.658 135.892 232.065 135.15 233.522C134.181 240.286 134.676 243.727 135.665 246.206C136.478 248.091 137.886 249.659 139.673 250.669C143.978 253.306 148.546 254.559 153.682 253.807C157.973 253.181 162.318 252.93 166.642 252.574C169.681 252.324 172.727 252.153 175.773 252.001C177.474 251.922 177.79 252.33 177.546 254.058C176.821 259.259 176.122 264.474 175.344 269.668C174.685 274.145 173.861 278.595 173.215 283.071C173.044 284.271 172.365 284.811 171.448 285.339C169.095 286.622 166.581 287.585 163.972 288.2C162.951 288.463 161.995 288.964 160.979 289.241C157.123 290.296 153.187 290.131 149.265 289.848C145.58 289.584 141.908 289.142 138.223 288.8C134.122 288.411 130.47 286.96 127.576 284.007C126.384 282.795 125.412 281.385 124.702 279.841C123.682 277.571 122.861 275.218 122.249 272.806C121.399 269.458 120.799 266.036 120.12 262.641C119.566 259.839 119.817 257.018 120.014 254.216C120.39 248.823 120.805 243.431 121.333 238.051C121.524 235.148 121.922 232.262 122.526 229.415C123.622 224.433 125.855 219.771 129.052 215.795C131.136 213.277 132.83 210.37 135.183 208.148C137.735 205.885 140.517 203.897 143.483 202.215C144.762 201.437 146.47 201.358 147.999 201.035C149.713 200.666 151.48 200.508 153.161 200.04C156.912 198.991 160.656 199.136 164.427 199.796C165.891 200.046 167.367 200.363 169.101 200.699Z" fill="#F9550D"/>
<path d="M423.944 209.263C422.882 210.41 421.834 211.57 420.753 212.697C419.25 214.266 417.793 215.881 416.198 217.351C413.264 220.054 412.73 220.021 410.034 217.22C407.021 214.095 404.041 210.944 401.055 207.792C400.92 207.585 400.807 207.364 400.719 207.133C404.575 203.099 408.63 199.17 412.809 195.3L412.625 195.023C412.104 195.122 411.583 195.254 411.049 195.326C409.071 195.61 407.047 195.939 405.03 196.124C403.511 196.249 401.985 196.282 400.462 196.223C398.767 196.163 398.523 195.887 398.629 194.245C398.761 192.188 398.978 190.131 399.156 188.075C399.493 184.08 399.816 180.078 400.165 176.083C400.336 174.059 400.415 173.993 402.433 173.617C402.841 173.536 403.256 173.496 403.672 173.499C408.471 173.657 413.271 173.842 418.076 174C418.736 174 419.395 174 420.054 173.96C420.239 170.941 420.41 168.185 420.575 165.423C420.687 163.538 420.76 161.646 420.911 159.754C421.017 158.336 421.392 157.961 422.77 157.868C428.255 157.512 433.733 156.893 439.251 157.591C440.029 157.69 440.82 157.637 441.605 157.677C441.73 157.677 441.849 157.796 442.159 157.947C442.356 162.47 440.748 166.847 440.332 171.521C440.873 171.587 441.354 171.679 441.835 171.699C444.697 171.844 447.564 171.93 450.406 172.128C452.383 172.266 454.137 172.919 455.291 174.62C455.663 175.13 455.857 175.748 455.844 176.38C455.264 181.284 454.579 186.176 453.965 191.074C453.9 191.742 453.665 192.383 453.283 192.935C452.901 193.488 452.385 193.934 451.783 194.232C449.19 195.798 446.241 196.676 443.213 196.783C442.297 196.783 441.387 196.908 440.194 196.994C440.438 198.781 440.57 200.462 440.906 202.103C441.44 204.674 442.119 207.219 442.732 209.783C442.818 210.139 442.864 210.508 442.943 210.864C443.233 212.183 442.765 213.02 441.545 213.66C438.856 215.09 436.272 216.732 433.549 218.09C431.998 218.794 430.375 219.331 428.71 219.692C427.392 220.021 426.772 219.619 426.383 218.182C425.829 216.132 425.427 214.042 424.959 211.972C424.761 211.089 424.544 210.205 424.339 209.335L423.944 209.263ZM419.725 180.216C419.61 180.454 419.515 180.701 419.441 180.955C418.841 184.91 418.228 188.899 417.688 192.88C417.666 193.415 417.834 193.941 418.162 194.364C419.85 196.559 421.597 198.715 423.337 200.87C423.601 201.16 423.883 201.434 424.181 201.688C427.477 199.275 431.36 198.477 435.177 197.113C435.678 191.318 436.179 185.55 436.7 179.57C431.143 179.557 425.46 180.085 419.725 180.216Z" fill="#FFCA27"/>
<path d="M130.872 328.176C130.931 327.101 130.938 325.908 131.07 324.728C131.887 317.391 132.685 310.047 133.582 302.716C133.872 300.349 134.294 297.97 135.922 296.018C136.17 295.66 136.521 295.386 136.928 295.23C137.335 295.075 137.779 295.046 138.203 295.148C140.378 295.557 142.58 295.86 144.795 296.229C146.503 296.513 146.714 296.816 147.109 298.477C147.656 300.745 147.313 302.973 146.931 305.201C146.158 309.75 145.369 314.295 144.564 318.834C144.077 321.564 143.543 324.28 143.022 326.996C142.961 327.313 142.879 327.626 142.778 327.932C142.251 329.554 142.119 329.686 140.411 329.554C138.02 329.356 135.634 329.119 133.252 328.842C132.443 328.679 131.648 328.457 130.872 328.176Z" fill="#F9550D"/>
<path d="M131.373 294.258C131.09 296.308 130.892 298.214 130.563 300.04C129.505 305.629 127.961 311.115 125.948 316.435C125.534 317.514 125.015 318.549 124.399 319.527C124.252 319.751 124.058 319.939 123.83 320.079C123.602 320.22 123.346 320.308 123.08 320.338C120.872 320.226 118.676 319.975 116.349 319.757C116.296 319.32 116.274 318.88 116.283 318.439C116.844 313.435 117.332 308.419 118.057 303.435C118.379 302.044 118.995 300.738 119.863 299.605C121.251 297.415 123.059 295.521 125.183 294.034C125.533 293.769 125.937 293.584 126.367 293.493C126.797 293.402 127.241 293.406 127.668 293.507C128.842 293.803 129.982 294.021 131.373 294.258Z" fill="#F9550D"/>
</g>
<defs>
<clipPath id="clip0_673_259">
<rect width="600" height="333.489" fill="white"/>
</clipPath>
</defs>
</svg>
